<?xml version="1.0" encoding="utf-8"?>
<!-- Generator: Adobe Illustrator 21.0.0, SVG Export Plug-In . SVG Version: 6.00 Build 0)  -->
<svg version="1.1" id="Capa_1" xmlns="http://www.w3.org/2000/svg" xmlns:xlink="http://www.w3.org/1999/xlink" x="0px" y="0px"
	 viewBox="0 0 352.8 95" style="enable-background:new 0 0 352.8 95;" xml:space="preserve">
<style type="text/css">
	.st0{fill:#E5E5E5;}
	.st1{fill:url(#SVGID_1_);}
	.st2{fill:url(#SVGID_2_);}
	.st3{fill:url(#SVGID_3_);}
	.st4{fill:url(#SVGID_4_);}
	.st5{fill:url(#SVGID_5_);}
	.st6{fill:url(#SVGID_6_);}
	.st7{fill:url(#SVGID_7_);}
	.st8{fill:url(#SVGID_8_);}
	.st9{fill:url(#SVGID_9_);}
	.st10{fill:url(#SVGID_10_);}
	.st11{fill:url(#SVGID_11_);}
	.st12{fill:#4B4B4B;}
	.st13{fill:url(#SVGID_12_);}
	.st14{fill:url(#SVGID_13_);}
	.st15{fill:url(#SVGID_14_);}
	.st16{fill:url(#SVGID_15_);}
	.st17{fill:url(#SVGID_16_);}
	.st18{fill:url(#SVGID_17_);}
	.st19{fill:url(#SVGID_18_);}
	.st20{fill:url(#SVGID_19_);}
	.st21{fill:url(#SVGID_20_);}
	.st22{fill:url(#SVGID_21_);}
	.st23{fill:url(#SVGID_22_);}
	.st24{fill:url(#SVGID_23_);}
	.st25{fill:url(#SVGID_24_);}
	.st26{fill:url(#SVGID_25_);}
	.st27{fill:url(#SVGID_26_);}
	.st28{fill:url(#SVGID_27_);}
	.st29{fill:url(#SVGID_28_);}
</style>
<g>
	<g>
		<g>
			<g>
				<rect x="36.7" y="32.1" class="st0" width="24.5" height="5.8"/>
				<rect x="36.7" y="41.4" class="st0" width="6.1" height="5.8"/>
				<rect x="36.7" y="50.7" class="st0" width="6.1" height="5.8"/>
				<rect x="36.7" y="60" class="st0" width="6.1" height="5.8"/>
				<rect x="45.9" y="41.4" class="st0" width="6.1" height="5.8"/>
				<rect x="45.9" y="50.7" class="st0" width="6.1" height="5.8"/>
				<rect x="45.9" y="60" class="st0" width="6.1" height="5.8"/>
				<rect x="55.2" y="41.4" class="st0" width="6.1" height="5.8"/>
				
					<rect x="55.2" y="50.7" transform="matrix(6.123234e-17 -1 1 6.123234e-17 4.5873 111.8178)" class="st0" width="6.1" height="5.8"/>
				<rect x="55.2" y="60" class="st0" width="6.1" height="5.8"/>
			</g>
			<path class="st0" d="M78,13.3l-7.8,10C64.4,18.5,57,15.7,49,15.7c-12.4,0-23.2,6.8-28.9,16.9L16.1,32C22.3,20.1,34.7,12,49,12
				c6,0,11.7,1.4,16.7,4l5.6-7.2C64.7,5.1,57.1,3,49,3C26.4,3,7.7,19.2,3.8,40.6l8.9,1.3l0,0l3.7,0.5c-0.4,2.1-0.6,4.3-0.6,6.5
				c0,18.4,14.9,33.3,33.3,33.3c0.2,0,0.5,0,0.7,0l1.5,3.7C50.4,86,49.7,86,49,86c-20.1,0-36.5-16-37-36l-9-1.3c0,0.1,0,0.2,0,0.3
				c0,25.4,20.6,46,46,46c5.6,0,10.9-1,15.8-2.8l-3.3-8.3l0,0l-1.4-3.5C73,75.8,82.3,63.5,82.3,49c0-6.5-1.9-12.6-5.2-17.8l2.4-3.1
				C83.6,34,86,41.2,86,49c0,13.2-6.9,24.7-17.3,31.3l3.4,8.4C85.8,80.7,95,65.9,95,49C95,34.6,88.3,21.7,78,13.3z M49,74.1
				c-13.9,0-25.1-11.3-25.1-25.1S35.1,23.8,49,23.8S74.1,35.1,74.1,49S62.9,74.1,49,74.1z"/>
		</g>
		<g>
			<g>
				<radialGradient id="SVGID_1_" cx="2.0058" cy="62.9968" r="126.6493" gradientUnits="userSpaceOnUse">
					<stop  offset="0" style="stop-color:#FF6D08"/>
					<stop  offset="1" style="stop-color:#FFD208"/>
				</radialGradient>
				<rect x="34.1" y="29.5" class="st1" width="24.8" height="5.9"/>
				<radialGradient id="SVGID_2_" cx="2.0058" cy="62.9968" r="126.6493" gradientUnits="userSpaceOnUse">
					<stop  offset="0" style="stop-color:#FF6D08"/>
					<stop  offset="1" style="stop-color:#FFD208"/>
				</radialGradient>
				<rect x="34.1" y="38.9" class="st2" width="6.2" height="5.9"/>
				<radialGradient id="SVGID_3_" cx="2.0058" cy="62.9968" r="126.6493" gradientUnits="userSpaceOnUse">
					<stop  offset="0" style="stop-color:#FF6D08"/>
					<stop  offset="1" style="stop-color:#FFD208"/>
				</radialGradient>
				<rect x="34.1" y="48.3" class="st3" width="6.2" height="5.9"/>
				<radialGradient id="SVGID_4_" cx="2.0058" cy="62.9968" r="126.6493" gradientUnits="userSpaceOnUse">
					<stop  offset="0" style="stop-color:#FF6D08"/>
					<stop  offset="1" style="stop-color:#FFD208"/>
				</radialGradient>
				<rect x="34.1" y="57.7" class="st4" width="6.2" height="5.9"/>
				<radialGradient id="SVGID_5_" cx="2.0058" cy="62.9968" r="126.6493" gradientUnits="userSpaceOnUse">
					<stop  offset="0" style="stop-color:#FF6D08"/>
					<stop  offset="1" style="stop-color:#FFD208"/>
				</radialGradient>
				<rect x="43.5" y="38.9" class="st5" width="6.2" height="5.9"/>
				<radialGradient id="SVGID_6_" cx="2.0058" cy="62.9968" r="126.6493" gradientUnits="userSpaceOnUse">
					<stop  offset="0" style="stop-color:#FF6D08"/>
					<stop  offset="1" style="stop-color:#FFD208"/>
				</radialGradient>
				<rect x="43.5" y="48.3" class="st6" width="6.2" height="5.9"/>
				<radialGradient id="SVGID_7_" cx="2.0058" cy="62.9968" r="126.6493" gradientUnits="userSpaceOnUse">
					<stop  offset="0" style="stop-color:#FF6D08"/>
					<stop  offset="1" style="stop-color:#FFD208"/>
				</radialGradient>
				<rect x="43.5" y="57.7" class="st7" width="6.2" height="5.9"/>
				<radialGradient id="SVGID_8_" cx="2.0058" cy="62.9968" r="126.6493" gradientUnits="userSpaceOnUse">
					<stop  offset="0" style="stop-color:#FF6D08"/>
					<stop  offset="1" style="stop-color:#FFD208"/>
				</radialGradient>
				<rect x="52.8" y="38.9" class="st8" width="6.2" height="5.9"/>
				<radialGradient id="SVGID_9_" cx="2.0058" cy="62.9968" r="126.6493" gradientUnits="userSpaceOnUse">
					<stop  offset="0" style="stop-color:#FF6D08"/>
					<stop  offset="1" style="stop-color:#FFD208"/>
				</radialGradient>
				<polygon class="st9" points="58.9,48.2 58.9,54.3 52.9,54.3 52.9,48.2 				"/>
				<radialGradient id="SVGID_10_" cx="2.0058" cy="62.9968" r="126.6493" gradientUnits="userSpaceOnUse">
					<stop  offset="0" style="stop-color:#FF6D08"/>
					<stop  offset="1" style="stop-color:#FFD208"/>
				</radialGradient>
				<rect x="52.8" y="57.7" class="st10" width="6.2" height="5.9"/>
			</g>
			<radialGradient id="SVGID_11_" cx="2.0058" cy="62.9968" r="126.6493" gradientUnits="userSpaceOnUse">
				<stop  offset="0" style="stop-color:#FF6D08"/>
				<stop  offset="1" style="stop-color:#FFD208"/>
			</radialGradient>
			<path class="st11" d="M75.9,10.4L68,20.5c-5.8-4.8-13.3-7.7-21.4-7.7C34,12.9,23,19.7,17.3,29.9l-4-0.6
				c6.2-12,18.8-20.3,33.3-20.3c6.1,0,11.8,1.5,16.9,4l5.7-7.3C62.5,2.1,54.8,0,46.6,0C23.7,0,4.7,16.4,0.8,38.1l9,1.3l0,0l3.7,0.5
				c-0.4,2.1-0.6,4.3-0.6,6.6c0,18.6,15.1,33.7,33.7,33.7c0.3,0,0.5,0,0.7,0l1.5,3.7C48,84,47.3,84,46.6,84
				C26.2,84,9.6,67.8,9.1,47.5L0,46.2c0,0.1,0,0.2,0,0.3c0,25.7,20.8,46.6,46.6,46.6c5.6,0,11-1,16-2.8l-3.4-8.4l0,0l-1.4-3.5
				c13.1-4.6,22.4-17.1,22.4-31.8c0-6.6-1.9-12.8-5.2-18l2.5-3.1c4.1,6,6.5,13.3,6.5,21.1c0,13.3-7,25.1-17.5,31.7l3.4,8.5
				c13.8-8.1,23.1-23.1,23.1-40.2C93.1,32,86.4,19,75.9,10.4z M46.6,72c-14.1,0-25.4-11.4-25.4-25.4s11.4-25.4,25.4-25.4
				S72,32.5,72,46.6S60.6,72,46.6,72z"/>
		</g>
	</g>
	<g>
		<path class="st12" d="M141.1,56.4h4.3c-1,1.7-2,3.1-2.9,4.1c-1.3,1.4-2.7,2.6-4.4,3.6c-1.6,1-3.4,1.7-5.1,2.2
			c-1.8,0.5-3.6,0.7-5.3,0.7c-3.4,0-6.7-0.9-9.8-2.6c-3.2-1.7-5.6-4.2-7.4-7.3c-1.8-3.1-2.6-6.4-2.6-9.9c0-3.5,0.9-6.8,2.6-9.9
			c1.7-3.1,4.2-5.5,7.3-7.3c3.1-1.7,6.4-2.6,9.9-2.6c3.7,0,7.2,0.9,10.5,2.8c3.2,1.9,5.6,4.4,7.1,7.6h-4.3c-1.1-1.4-2-2.6-3-3.4
			c-1.3-1.1-2.7-2-4.4-2.6c-1.7-0.7-3.5-1-5.6-1c-2.9,0-5.7,0.7-8.2,2.2c-2.5,1.5-4.5,3.5-6,6.1c-1.4,2.6-2.2,5.3-2.2,8
			c0,2.3,0.5,4.4,1.4,6.4c0.9,2,2.1,3.6,3.5,5c1.4,1.4,2.9,2.4,4.5,3.2c2.2,1.1,4.5,1.6,6.8,1.6c1.9,0,3.7-0.3,5.4-1
			c1.7-0.7,3.3-1.6,4.7-2.8C138.9,59,140,57.9,141.1,56.4z"/>
		<path class="st12" d="M146,52.5c0-2.1,0.4-4.1,1.2-5.9c0.8-1.8,1.8-3.4,3.1-4.6c1.3-1.3,2.7-2.3,4.2-3c2-1,4.1-1.5,6.3-1.5
			c2.5,0,4.9,0.7,7.3,2c2.3,1.3,4.2,3.2,5.5,5.5c1.3,2.4,2,4.8,2,7.3c0,2.5-0.7,4.9-2,7.3c-1.3,2.4-3.1,4.2-5.5,5.5
			c-2.3,1.3-4.8,2-7.3,2c-1.8,0-3.6-0.3-5.2-1c-1.7-0.6-3.1-1.5-4.4-2.7c-1.3-1.1-2.3-2.3-3-3.5c-0.7-1.2-1.2-2.4-1.6-3.7
			C146.1,55,146,53.8,146,52.5z M149.6,52.4c0,2,0.5,3.8,1.4,5.6c1,1.8,2.4,3.2,4.2,4.2c1.8,1,3.7,1.6,5.6,1.6
			c1.9,0,3.7-0.5,5.5-1.5c1.8-1,3.1-2.4,4.1-4.2c1-1.8,1.5-3.8,1.5-5.9c0-2.2-0.5-4.1-1.5-5.9c-1-1.8-2.4-3.1-4.2-4.1
			c-1.8-1-3.6-1.5-5.4-1.5c-1.8,0-3.6,0.5-5.5,1.6c-1.8,1-3.2,2.5-4.2,4.3C150.1,48.3,149.6,50.3,149.6,52.4z"/>
		<path class="st12" d="M178.4,66.4V38.2h3.6v3.6h0.1c2-2.9,5-4.3,9-4.3c1.9,0,3.6,0.3,5.2,1c1.5,0.7,2.9,1.7,4,3
			c0.8,0.9,1.4,1.9,1.9,3.3c0.7,1.9,1.1,4,1.1,6.2v15.5h-3.6V50.9c0-2.3-0.4-4.2-1.2-5.7c-0.8-1.6-1.9-2.7-3.4-3.4
			c-1.4-0.7-2.9-1.1-4.3-1.1c-1.5,0-3,0.4-4.4,1.2c-1.5,0.8-2.5,1.9-3.3,3.4c-0.7,1.5-1.1,3.4-1.1,5.6v15.5H178.4z"/>
		<path class="st12" d="M210.6,66.4v-25h-5.9v-3.3h5.9v-10h3.6v10h6.8v3.3h-6.8v25H210.6z"/>
		<path class="st12" d="M248.6,38.2v28.2h-3.6v-5h-0.1c-0.8,1.1-1.5,1.9-2.1,2.5c-1.1,0.9-2.4,1.7-3.9,2.3c-1.5,0.6-3.3,0.9-5.2,0.9
			c-2.9,0-5.5-0.7-7.8-2c-2.3-1.3-4-3.1-5.3-5.5c-1.2-2.4-1.9-4.8-1.9-7.4c0-2.6,0.7-5.1,2-7.4c1.3-2.3,3.1-4.2,5.5-5.5
			c2.4-1.3,4.9-2,7.6-2c1.8,0,3.4,0.3,4.9,0.8c1.5,0.5,2.8,1.3,3.9,2.3c0.8,0.6,1.5,1.5,2.2,2.6h0.1v-4.9H248.6z M222.3,52.4
			c0,2,0.5,3.9,1.4,5.7c1,1.8,2.3,3.2,4.1,4.2c1.8,1,3.7,1.5,5.8,1.5c2.1,0,4-0.5,5.8-1.5c1.8-1,3.2-2.4,4.2-4.2
			c1-1.8,1.5-3.7,1.5-5.8c0-2.1-0.5-4-1.5-5.9c-1-1.8-2.4-3.3-4.2-4.3c-1.8-1-3.7-1.5-5.7-1.5c-1.1,0-2.1,0.1-3.1,0.4
			c-1,0.3-1.9,0.7-2.9,1.2c-0.9,0.5-1.8,1.2-2.6,2.2c-0.8,0.9-1.5,2.1-2.1,3.5S222.3,50.8,222.3,52.4z"/>
		<linearGradient id="SVGID_12_" gradientUnits="userSpaceOnUse" x1="272.5663" y1="91.5915" x2="272.5663" y2="-2.2286">
			<stop  offset="0" style="stop-color:#FF6D08"/>
			<stop  offset="1" style="stop-color:#FFD208"/>
		</linearGradient>
		<path class="st13" d="M260.7,66.4l-11.1-38.2h7.2l6.6,26.7h0.1l6.6-26.7h5.2l6.4,26.7h0.1l6.7-26.7h7.2l-11.1,38.2h-5.6l-6.2-25.2
			h-0.1l-6.3,25.2H260.7z"/>
		<linearGradient id="SVGID_13_" gradientUnits="userSpaceOnUse" x1="306.2086" y1="91.5915" x2="306.2086" y2="-2.2286">
			<stop  offset="0" style="stop-color:#FF6D08"/>
			<stop  offset="1" style="stop-color:#FFD208"/>
		</linearGradient>
		<path class="st14" d="M320.7,55.2h-22.2c0.7,1.9,1.7,3.4,3.1,4.4c1.4,1,3,1.5,5,1.5c1.5,0,2.8-0.3,3.8-0.9s1.9-1.5,2.6-2.7h7.2
			c-0.5,1.3-1,2.4-1.6,3.3c-0.9,1.3-2,2.5-3.2,3.5c-1.3,1-2.6,1.8-4.1,2.4c-1.5,0.5-3.2,0.8-5.2,0.8c-4.8,0-8.6-1.8-11.5-5.3
			c-2.3-2.8-3.4-6.1-3.4-10c0-2.8,0.7-5.4,2-7.9c1.3-2.4,3.2-4.3,5.5-5.6s4.9-2,7.7-2c2.7,0,5.2,0.6,7.5,1.9c2.3,1.3,4,3.1,5.3,5.4
			c1.3,2.3,1.9,4.8,1.9,7.4C321.2,52.6,321,53.9,320.7,55.2z M314.1,49.6c-0.4-2.2-1.3-3.8-2.7-5c-1.4-1.2-3.1-1.7-5.1-1.7
			c-1.5,0-2.8,0.3-4,1c-1.1,0.7-2.1,1.6-2.8,2.8c-0.5,0.8-0.9,1.8-1.2,3H314.1z"/>
		<linearGradient id="SVGID_14_" gradientUnits="userSpaceOnUse" x1="337.6685" y1="91.5915" x2="337.6685" y2="-2.2286">
			<stop  offset="0" style="stop-color:#FF6D08"/>
			<stop  offset="1" style="stop-color:#FFD208"/>
		</linearGradient>
		<path class="st15" d="M322.6,66.4V28.2h6.9v12.2c2.5-2.4,5.5-3.6,9-3.6c2.5,0,4.9,0.7,7.1,2c2.2,1.3,4,3.2,5.3,5.6
			c1.3,2.4,1.9,5,1.9,7.6c0,2.5-0.6,5-1.8,7.6c-1.2,2.5-2.9,4.5-5.1,5.9c-2.2,1.4-4.7,2-7.5,2c-2.1,0-3.8-0.3-5.3-1
			c-1.5-0.7-2.9-1.8-4.2-3.3v3.5H322.6z M329,51.7c0,2.9,0.9,5.2,2.6,6.9c1.7,1.6,3.8,2.5,6,2.5c2.3,0,4.3-0.8,5.9-2.5
			c1.6-1.7,2.4-3.8,2.4-6.5c0-2.6-0.8-4.8-2.4-6.5c-1.6-1.7-3.6-2.5-6-2.5c-1.5,0-3,0.4-4.3,1.2c-1.3,0.8-2.4,1.9-3.1,3.2
			C329.4,48.9,329,50.3,329,51.7z"/>
	</g>
</g>
</svg>
