<?xml version="1.0" encoding="utf-8"?>
<!-- Generator: Adobe Illustrator 21.0.0, SVG Export Plug-In . SVG Version: 6.00 Build 0)  -->
<svg version="1.1" id="Capa_1" xmlns="http://www.w3.org/2000/svg" xmlns:xlink="http://www.w3.org/1999/xlink" x="0px" y="0px"
	 viewBox="0 0 276.8 83.9" style="enable-background:new 0 0 276.8 83.9;" xml:space="preserve">
<style type="text/css">
	.st0{fill:#FFFFFF;}
	.st1{fill:#87868B;}
	.st2{fill:#D68500;}
	.st3{fill:#CCB36E;}
	.st4{fill:#FF6B00;}
	.st5{fill:#F19200;}
	.st6{fill:#0C0E11;}
	.st7{fill:url(#SVGID_1_);}
	.st8{fill:url(#SVGID_2_);}
	.st9{fill:url(#SVGID_3_);}
	.st10{fill:url(#SVGID_4_);}
	.st11{fill:url(#SVGID_5_);}
	.st12{fill:url(#SVGID_6_);}
	.st13{fill:url(#SVGID_7_);}
	.st14{fill:url(#SVGID_8_);}
	.st15{fill:url(#SVGID_9_);}
	.st16{fill:url(#SVGID_10_);}
	.st17{fill:url(#SVGID_11_);}
	.st18{fill:url(#SVGID_12_);}
	.st19{fill:url(#SVGID_13_);}
	.st20{fill:url(#SVGID_14_);}
	.st21{fill:url(#SVGID_15_);}
	.st22{fill:url(#SVGID_16_);}
	.st23{fill:url(#SVGID_17_);}
	.st24{fill:url(#SVGID_18_);}
	.st25{fill:url(#SVGID_19_);}
	.st26{fill:url(#SVGID_20_);}
	.st27{fill:url(#SVGID_21_);}
	.st28{fill:url(#SVGID_22_);}
	.st29{fill:url(#SVGID_23_);}
	.st30{fill:url(#SVGID_24_);}
	.st31{fill:url(#SVGID_25_);}
	.st32{fill:url(#SVGID_26_);}
	.st33{fill:url(#SVGID_27_);}
	.st34{fill:url(#SVGID_28_);}
	.st35{fill:url(#SVGID_29_);}
	.st36{fill:url(#SVGID_30_);}
	.st37{fill:url(#SVGID_31_);}
	.st38{fill:url(#SVGID_32_);}
	.st39{fill:url(#SVGID_33_);}
	.st40{fill:url(#SVGID_34_);}
	.st41{fill:url(#SVGID_35_);}
	.st42{fill:url(#SVGID_36_);}
	.st43{fill:url(#SVGID_37_);}
	.st44{fill:url(#SVGID_38_);}
	.st45{fill:url(#SVGID_39_);}
	.st46{fill:url(#SVGID_40_);}
	.st47{fill:url(#SVGID_41_);}
	.st48{fill:url(#SVGID_42_);}
	.st49{opacity:0.2;fill:#FF1D1B;}
	.st50{fill:url(#SVGID_43_);}
	.st51{fill:url(#SVGID_44_);}
	.st52{fill:url(#SVGID_45_);}
	.st53{fill:url(#SVGID_46_);}
	.st54{fill:url(#SVGID_47_);}
	.st55{fill:url(#SVGID_48_);}
	.st56{fill:url(#SVGID_49_);}
	.st57{fill:url(#SVGID_50_);}
	.st58{fill:url(#SVGID_51_);}
	.st59{fill:url(#SVGID_52_);}
	.st60{fill:url(#SVGID_53_);}
	.st61{fill:url(#SVGID_54_);}
	.st62{fill:url(#SVGID_55_);}
	.st63{fill:url(#SVGID_56_);}
	.st64{fill:#FFBC00;}
	.st65{fill:none;stroke:#FFFFFF;stroke-width:2;stroke-miterlimit:10;}
	.st66{fill:#282828;}
	.st67{fill:url(#SVGID_59_);}
	.st68{fill:url(#SVGID_60_);}
	.st69{fill:url(#SVGID_61_);}
	.st70{fill:url(#SVGID_62_);}
	.st71{fill:url(#SVGID_63_);}
	.st72{fill:url(#SVGID_64_);}
	.st73{fill:url(#SVGID_65_);}
	.st74{fill:url(#SVGID_66_);}
	.st75{fill:url(#SVGID_67_);}
	.st76{fill:url(#SVGID_68_);}
	.st77{fill:url(#SVGID_69_);}
	.st78{fill:url(#SVGID_70_);}
	.st79{fill:url(#SVGID_71_);}
	.st80{fill:url(#SVGID_72_);}
</style>
<g>
	<path class="st66" d="M137.1,73.7L137.1,73.7l8.3,0.1l-26.6-34.3L92,73.8h9.1c0,0-1.8-0.8-1.3-1.5c0.5-0.6,19-23.8,19-23.8l6.3,7.9
		h-8.6l-3.3,4.7h0.1c0.4-0.3,0.7-0.3,0.7-0.3h14.5l9.2,11.5C137.8,72.2,138.7,73.4,137.1,73.7z"/>
	<path class="st66" d="M210.7,73.7L210.7,73.7l7.5,0l-12-34.3L191.2,65l-15.5-25.6l-12.1,34.3h8.1c0,0-1.4-1-1.1-2.4
		c0.3-1.4,6.2-19.6,6.2-19.6l14.1,22l13.7-22.5l6.8,19.8C211.4,71.1,212.1,73.4,210.7,73.7z"/>
	<g>
		<path class="st66" d="M157.9,71.6c-1.5,1.4-3.3,2.1-5.4,2.1c-1.9,0-3.4-0.5-4.4-1.4c-1.1-0.9-1.6-2-1.6-3.1c0-1.9,1.5-3.4,4.5-4.6
			c-0.8-0.8-1.4-1.4-1.7-1.9c-0.3-0.5-0.4-1-0.4-1.5c0-1,0.5-1.8,1.4-2.4c0.9-0.7,2-1,3.3-1c1.2,0,2.3,0.3,3.1,0.9
			c0.9,0.6,1.3,1.4,1.3,2.3c0,1.5-1.2,2.7-3.6,3.7l3.4,3.5c0.4-0.6,0.7-1.3,0.9-2.1l2.4,0.4c-0.4,1.3-1,2.4-1.7,3.3
			c0.9,0.9,1.8,1.7,2.9,2.4l-1.6,1.5C159.8,73.3,158.9,72.5,157.9,71.6z M156.4,70.1l-4.2-4.3c-1.2,0.6-2,1.1-2.5,1.6
			c-0.5,0.5-0.7,1-0.7,1.6c0,0.7,0.3,1.4,1,2c0.7,0.6,1.5,1,2.5,1c0.7,0,1.4-0.2,2.1-0.5C155.3,71.1,155.9,70.7,156.4,70.1z
			 M153.1,63.6c1-0.5,1.6-0.9,1.9-1.2c0.3-0.4,0.5-0.8,0.5-1.2c0-0.5-0.2-1-0.6-1.3c-0.4-0.3-0.9-0.5-1.5-0.5
			c-0.6,0-1.1,0.2-1.6,0.5s-0.7,0.7-0.7,1.2c0,0.5,0.3,1,0.9,1.6L153.1,63.6z"/>
	</g>
	<g>
		<g>
			<radialGradient id="SVGID_1_" cx="8.3613" cy="56.0713" r="108.679" gradientUnits="userSpaceOnUse">
				<stop  offset="0" style="stop-color:#FF6D08"/>
				<stop  offset="1" style="stop-color:#FFD208"/>
			</radialGradient>
			<rect x="35.9" y="27.3" class="st7" width="21.3" height="5.1"/>
			<radialGradient id="SVGID_2_" cx="8.3613" cy="56.0713" r="108.679" gradientUnits="userSpaceOnUse">
				<stop  offset="0" style="stop-color:#FF6D08"/>
				<stop  offset="1" style="stop-color:#FFD208"/>
			</radialGradient>
			<rect x="35.9" y="35.4" class="st8" width="5.3" height="5.1"/>
			<radialGradient id="SVGID_3_" cx="8.3613" cy="56.0713" r="108.679" gradientUnits="userSpaceOnUse">
				<stop  offset="0" style="stop-color:#FF6D08"/>
				<stop  offset="1" style="stop-color:#FFD208"/>
			</radialGradient>
			<rect x="35.9" y="43.5" class="st9" width="5.3" height="5.1"/>
			<radialGradient id="SVGID_4_" cx="8.3613" cy="56.0713" r="108.679" gradientUnits="userSpaceOnUse">
				<stop  offset="0" style="stop-color:#FF6D08"/>
				<stop  offset="1" style="stop-color:#FFD208"/>
			</radialGradient>
			<rect x="35.9" y="51.5" class="st10" width="5.3" height="5.1"/>
			<radialGradient id="SVGID_5_" cx="8.3613" cy="56.0713" r="108.679" gradientUnits="userSpaceOnUse">
				<stop  offset="0" style="stop-color:#FF6D08"/>
				<stop  offset="1" style="stop-color:#FFD208"/>
			</radialGradient>
			<rect x="43.9" y="35.4" class="st11" width="5.3" height="5.1"/>
			<radialGradient id="SVGID_6_" cx="8.3613" cy="56.0713" r="108.679" gradientUnits="userSpaceOnUse">
				<stop  offset="0" style="stop-color:#FF6D08"/>
				<stop  offset="1" style="stop-color:#FFD208"/>
			</radialGradient>
			<rect x="43.9" y="43.5" class="st12" width="5.3" height="5.1"/>
			<radialGradient id="SVGID_7_" cx="8.3613" cy="56.0713" r="108.679" gradientUnits="userSpaceOnUse">
				<stop  offset="0" style="stop-color:#FF6D08"/>
				<stop  offset="1" style="stop-color:#FFD208"/>
			</radialGradient>
			<rect x="43.9" y="51.5" class="st13" width="5.3" height="5.1"/>
			<radialGradient id="SVGID_8_" cx="8.3613" cy="56.0713" r="108.679" gradientUnits="userSpaceOnUse">
				<stop  offset="0" style="stop-color:#FF6D08"/>
				<stop  offset="1" style="stop-color:#FFD208"/>
			</radialGradient>
			<rect x="52" y="35.4" class="st14" width="5.3" height="5.1"/>
			<radialGradient id="SVGID_9_" cx="8.3613" cy="56.0713" r="108.679" gradientUnits="userSpaceOnUse">
				<stop  offset="0" style="stop-color:#FF6D08"/>
				<stop  offset="1" style="stop-color:#FFD208"/>
			</radialGradient>
			<polygon class="st15" points="57.2,43.4 57.2,48.6 52.1,48.6 52.1,43.4 			"/>
			<radialGradient id="SVGID_10_" cx="8.3613" cy="56.0713" r="108.679" gradientUnits="userSpaceOnUse">
				<stop  offset="0" style="stop-color:#FF6D08"/>
				<stop  offset="1" style="stop-color:#FFD208"/>
			</radialGradient>
			<rect x="52" y="51.5" class="st16" width="5.3" height="5.1"/>
		</g>
		<radialGradient id="SVGID_11_" cx="8.3613" cy="56.0713" r="108.679" gradientUnits="userSpaceOnUse">
			<stop  offset="0" style="stop-color:#FF6D08"/>
			<stop  offset="1" style="stop-color:#FFD208"/>
		</radialGradient>
		<path class="st17" d="M71.8,11L65,19.6C60,15.5,53.6,13,46.6,13c-10.8,0-20.2,5.9-25.1,14.6L18,27.2C23.4,16.9,34.2,9.8,46.6,9.8
			c5.2,0,10.2,1.3,14.5,3.5L66,7.1c-5.8-3.2-12.4-5-19.4-5C27,2,10.7,16.1,7.3,34.7l7.7,1.1l0,0l3.2,0.5c-0.4,1.8-0.6,3.7-0.6,5.7
			c0,16,12.9,28.9,28.9,28.9c0.2,0,0.4,0,0.6,0l1.3,3.2c-0.6,0-1.3,0.1-1.9,0.1c-17.5,0-31.7-13.9-32.1-31.3l-7.8-1.1
			c0,0.1,0,0.2,0,0.3c0,22.1,17.9,39.9,39.9,39.9c4.8,0,9.5-0.9,13.8-2.4l-2.9-7.2l0,0l-1.2-3c11.2-4,19.3-14.7,19.3-27.3
			c0-5.7-1.6-11-4.5-15.5l2.1-2.7c3.5,5.2,5.6,11.4,5.6,18.1c0,11.5-6,21.5-15,27.2l2.9,7.3C78.6,69.6,86.5,56.7,86.5,42
			C86.5,29.5,80.8,18.3,71.8,11z M46.6,63.8C34.5,63.8,24.8,54,24.8,42s9.8-21.8,21.8-21.8S68.4,29.9,68.4,42S58.6,63.8,46.6,63.8z"
			/>
	</g>
	<path class="st66" d="M117.9,29h3.1c-0.7,1.2-1.4,2.2-2.1,2.9c-0.9,1-2,1.9-3.1,2.6c-1.2,0.7-2.4,1.3-3.7,1.6
		c-1.3,0.4-2.6,0.5-3.8,0.5c-2.4,0-4.8-0.6-7.1-1.9c-2.3-1.3-4.1-3-5.3-5.2c-1.3-2.2-1.9-4.6-1.9-7.1c0-2.5,0.6-4.9,1.9-7.1
		s3-4,5.3-5.2c2.3-1.3,4.6-1.9,7.1-1.9c2.7,0,5.2,0.7,7.5,2.1c2.3,1.4,4,3.2,5.1,5.5h-3.1c-0.8-1-1.5-1.8-2.1-2.4
		c-0.9-0.8-2-1.4-3.2-1.9c-1.2-0.5-2.5-0.7-4-0.7c-2.1,0-4.1,0.5-5.9,1.6c-1.8,1-3.3,2.5-4.3,4.4c-1,1.9-1.6,3.8-1.6,5.8
		c0,1.7,0.3,3.2,1,4.6c0.7,1.4,1.5,2.6,2.5,3.6c1,1,2.1,1.8,3.2,2.3c1.6,0.8,3.2,1.2,4.9,1.2c1.4,0,2.7-0.2,3.9-0.7
		c1.2-0.5,2.4-1.2,3.4-2C116.3,30.8,117.1,30,117.9,29z"/>
	<path class="st66" d="M121.4,26.1c0-1.5,0.3-2.9,0.8-4.2c0.6-1.3,1.3-2.4,2.2-3.3c0.9-0.9,1.9-1.6,3-2.2c1.4-0.7,3-1.1,4.5-1.1
		c1.8,0,3.6,0.5,5.2,1.4c1.7,0.9,3,2.3,3.9,4c1,1.7,1.4,3.5,1.4,5.3c0,1.8-0.5,3.6-1.4,5.3c-0.9,1.7-2.3,3-3.9,4
		c-1.7,0.9-3.4,1.4-5.3,1.4c-1.3,0-2.6-0.2-3.7-0.7c-1.2-0.5-2.2-1.1-3.2-1.9c-0.9-0.8-1.6-1.6-2.1-2.5c-0.5-0.8-0.9-1.7-1.2-2.7
		C121.5,28,121.4,27.1,121.4,26.1z M124,26.1c0,1.4,0.3,2.8,1,4.1c0.7,1.3,1.7,2.3,3,3c1.3,0.7,2.6,1.1,4,1.1c1.4,0,2.7-0.4,4-1.1
		c1.3-0.7,2.3-1.7,3-3c0.7-1.3,1.1-2.7,1.1-4.3c0-1.6-0.4-3-1.1-4.2c-0.7-1.3-1.7-2.3-3-3c-1.3-0.7-2.6-1.1-3.9-1.1
		c-1.3,0-2.6,0.4-3.9,1.1c-1.3,0.7-2.3,1.8-3,3.1C124.3,23.2,124,24.6,124,26.1z"/>
	<path class="st66" d="M144.7,36.2V15.8h2.6v2.6h0.1c1.4-2.1,3.6-3.1,6.4-3.1c1.4,0,2.6,0.2,3.7,0.7c1.1,0.5,2.1,1.2,2.9,2.1
		c0.5,0.6,1,1.4,1.3,2.3c0.5,1.4,0.8,2.9,0.8,4.5v11.2H160V25c0-1.6-0.3-3-0.9-4.1c-0.6-1.1-1.4-1.9-2.4-2.4c-1-0.5-2.1-0.8-3.1-0.8
		c-1.1,0-2.1,0.3-3.2,0.8c-1,0.6-1.8,1.4-2.4,2.5c-0.5,1.1-0.8,2.4-0.8,4v11.2H144.7z"/>
	<path class="st66" d="M167.9,36.2v-18h-4.3v-2.3h4.3V8.7h2.6v7.2h4.9v2.3h-4.9v18H167.9z"/>
	<path class="st66" d="M195.2,15.8v20.3h-2.6v-3.6h-0.1c-0.6,0.8-1.1,1.4-1.5,1.8c-0.8,0.7-1.7,1.2-2.8,1.6
		c-1.1,0.4-2.3,0.6-3.8,0.6c-2.1,0-4-0.5-5.6-1.4c-1.6-0.9-2.9-2.3-3.8-4c-0.9-1.7-1.3-3.5-1.3-5.3c0-1.9,0.5-3.6,1.4-5.3
		c0.9-1.7,2.3-3,4-3.9c1.7-0.9,3.5-1.4,5.5-1.4c1.3,0,2.5,0.2,3.6,0.6c1.1,0.4,2,0.9,2.8,1.6c0.5,0.5,1.1,1.1,1.6,1.9h0.1v-3.6
		H195.2z M176.3,26.1c0,1.5,0.3,2.8,1,4.1c0.7,1.3,1.7,2.3,3,3c1.3,0.7,2.7,1.1,4.2,1.1c1.5,0,2.9-0.4,4.2-1.1c1.3-0.7,2.3-1.7,3-3
		c0.7-1.3,1.1-2.7,1.1-4.2c0-1.5-0.4-2.9-1.1-4.2c-0.7-1.3-1.7-2.4-3-3.1c-1.3-0.7-2.6-1.1-4.1-1.1c-0.8,0-1.5,0.1-2.2,0.3
		c-0.7,0.2-1.4,0.5-2.1,0.9c-0.7,0.4-1.3,0.9-1.9,1.6c-0.6,0.7-1.1,1.5-1.5,2.5C176.5,23.9,176.3,24.9,176.3,26.1z"/>
	<linearGradient id="SVGID_12_" gradientUnits="userSpaceOnUse" x1="212.4779" y1="54.2765" x2="212.4779" y2="-13.2264">
		<stop  offset="0" style="stop-color:#FF6D08"/>
		<stop  offset="1" style="stop-color:#FFD208"/>
	</linearGradient>
	<path class="st18" d="M203.9,36.2l-8-27.5h5.2l4.8,19.2h0.1l4.7-19.2h3.7l4.6,19.2h0.1l4.8-19.2h5.2l-8,27.5h-4L212.6,18h-0.1
		L208,36.2H203.9z"/>
	<linearGradient id="SVGID_13_" gradientUnits="userSpaceOnUse" x1="236.6833" y1="54.2765" x2="236.6833" y2="-13.2264">
		<stop  offset="0" style="stop-color:#FF6D08"/>
		<stop  offset="1" style="stop-color:#FFD208"/>
	</linearGradient>
	<path class="st19" d="M247.1,28.1h-16c0.5,1.4,1.2,2.4,2.2,3.2c1,0.7,2.2,1.1,3.6,1.1c1.1,0,2-0.2,2.8-0.7c0.7-0.4,1.4-1.1,1.9-2
		h5.2c-0.3,0.9-0.7,1.7-1.1,2.4c-0.6,0.9-1.4,1.8-2.3,2.5c-0.9,0.7-1.9,1.3-2.9,1.7c-1.1,0.4-2.3,0.6-3.7,0.6
		c-3.4,0-6.2-1.3-8.3-3.8c-1.6-2-2.4-4.4-2.4-7.2c0-2,0.5-3.9,1.4-5.7c1-1.7,2.3-3.1,4-4c1.7-0.9,3.6-1.4,5.6-1.4
		c1.9,0,3.7,0.5,5.4,1.4c1.6,0.9,2.9,2.2,3.8,3.9c0.9,1.7,1.4,3.4,1.4,5.3C247.4,26.2,247.3,27.1,247.1,28.1z M242.4,24.1
		c-0.3-1.6-0.9-2.8-1.9-3.6c-1-0.8-2.2-1.2-3.7-1.2c-1.1,0-2,0.2-2.9,0.7c-0.8,0.5-1.5,1.1-2,2c-0.4,0.6-0.6,1.3-0.9,2.1H242.4z"/>
	<linearGradient id="SVGID_14_" gradientUnits="userSpaceOnUse" x1="259.3185" y1="54.2765" x2="259.3185" y2="-13.2264">
		<stop  offset="0" style="stop-color:#FF6D08"/>
		<stop  offset="1" style="stop-color:#FFD208"/>
	</linearGradient>
	<path class="st20" d="M248.5,36.2V8.7h4.9v8.7c1.8-1.7,4-2.6,6.5-2.6c1.8,0,3.5,0.5,5.1,1.4c1.6,0.9,2.9,2.3,3.8,4
		c0.9,1.8,1.4,3.6,1.4,5.4c0,1.8-0.4,3.6-1.3,5.4c-0.9,1.8-2.1,3.2-3.6,4.2c-1.6,1-3.4,1.5-5.4,1.5c-1.5,0-2.7-0.3-3.8-0.8
		c-1.1-0.5-2.1-1.3-3.1-2.4v2.5H248.5z M253.1,25.6c0,2.1,0.6,3.8,1.9,5c1.3,1.2,2.7,1.8,4.3,1.8c1.7,0,3.1-0.6,4.2-1.8
		c1.1-1.2,1.7-2.8,1.7-4.7c0-1.9-0.6-3.4-1.8-4.7c-1.2-1.2-2.6-1.8-4.3-1.8c-1.1,0-2.1,0.3-3.1,0.9c-1,0.6-1.7,1.3-2.2,2.3
		C253.4,23.5,253.1,24.5,253.1,25.6z"/>
</g>
</svg>
