<?xml version="1.0" encoding="utf-8"?>
<!-- Generator: Adobe Illustrator 21.0.0, SVG Export Plug-In . SVG Version: 6.00 Build 0)  -->
<svg version="1.1" id="Capa_1" xmlns="http://www.w3.org/2000/svg" xmlns:xlink="http://www.w3.org/1999/xlink" x="0px" y="0px"
	 viewBox="0 0 245 207.9" style="enable-background:new 0 0 245 207.9;" xml:space="preserve">
<style type="text/css">
	.st0{fill:#E5E5E5;}
	.st1{fill:url(#SVGID_1_);}
	.st2{fill:url(#SVGID_2_);}
	.st3{fill:url(#SVGID_3_);}
	.st4{fill:url(#SVGID_4_);}
	.st5{fill:url(#SVGID_5_);}
	.st6{fill:url(#SVGID_6_);}
	.st7{fill:url(#SVGID_7_);}
	.st8{fill:url(#SVGID_8_);}
	.st9{fill:url(#SVGID_9_);}
	.st10{fill:url(#SVGID_10_);}
	.st11{fill:url(#SVGID_11_);}
	.st12{fill:#4B4B4B;}
	.st13{fill:url(#SVGID_12_);}
	.st14{fill:url(#SVGID_13_);}
	.st15{fill:url(#SVGID_14_);}
	.st16{fill:url(#SVGID_15_);}
	.st17{fill:url(#SVGID_16_);}
	.st18{fill:url(#SVGID_17_);}
	.st19{fill:url(#SVGID_18_);}
	.st20{fill:url(#SVGID_19_);}
	.st21{fill:url(#SVGID_20_);}
	.st22{fill:url(#SVGID_21_);}
	.st23{fill:url(#SVGID_22_);}
	.st24{fill:url(#SVGID_23_);}
	.st25{fill:url(#SVGID_24_);}
	.st26{fill:url(#SVGID_25_);}
	.st27{fill:url(#SVGID_26_);}
	.st28{fill:url(#SVGID_27_);}
	.st29{fill:url(#SVGID_28_);}
</style>
<g>
	<g>
		<g>
			<rect x="105.5" y="55.3" class="st0" width="42.2" height="10.1"/>
			<rect x="105.5" y="71.3" class="st0" width="10.5" height="10.1"/>
			<rect x="105.5" y="87.3" class="st0" width="10.5" height="10.1"/>
			<rect x="105.5" y="103.2" class="st0" width="10.5" height="10.1"/>
			<rect x="121.4" y="71.3" class="st0" width="10.5" height="10.1"/>
			<rect x="121.4" y="87.3" class="st0" width="10.5" height="10.1"/>
			<rect x="121.4" y="103.2" class="st0" width="10.5" height="10.1"/>
			<rect x="137.3" y="71.3" class="st0" width="10.5" height="10.1"/>
			
				<rect x="137.3" y="87.3" transform="matrix(6.123234e-17 -1 1 6.123234e-17 50.2562 234.8271)" class="st0" width="10.5" height="10.1"/>
			<rect x="137.3" y="103.2" class="st0" width="10.5" height="10.1"/>
		</g>
		<path class="st0" d="M176.6,22.9l-13.5,17.2c-9.9-8.2-22.6-13.1-36.4-13.1c-21.4,0-40,11.7-49.8,29l-6.8-1
			c10.6-20.5,31.9-34.5,56.6-34.5c10.4,0,20.1,2.5,28.8,6.9l9.7-12.3c-11.4-6.4-24.5-10-38.5-10c-38.8,0-71.1,28-77.8,64.8l15.3,2.2
			l0,0l6.4,0.9c-0.7,3.6-1.1,7.4-1.1,11.2c0,31.6,25.6,57.3,57.3,57.3c0.4,0,0.8,0,1.3,0l2.5,6.3c-1.3,0.1-2.5,0.1-3.8,0.1
			C92,148,63.9,120.4,63,86l-15.5-2.2c0,0.2,0,0.4,0,0.6c0,43.7,35.4,79.1,79.1,79.1c9.6,0,18.8-1.7,27.3-4.8l-5.7-14.4l0,0l-2.4-6
			c22.2-7.9,38.1-29.1,38.1-54c0-11.3-3.3-21.8-8.9-30.6l4.2-5.3c7,10.2,11.1,22.6,11.1,35.9c0,22.7-11.9,42.6-29.7,53.9l5.8,14.5
			c23.5-13.7,39.4-39.2,39.4-68.4C205.8,59.5,194.4,37.4,176.6,22.9z M126.7,127.6c-23.9,0-43.3-19.4-43.3-43.3S102.8,41,126.7,41
			s43.3,19.4,43.3,43.3S150.5,127.6,126.7,127.6z"/>
	</g>
	<g>
		<g>
			<radialGradient id="SVGID_1_" cx="45.8129" cy="108.4335" r="217.9954" gradientUnits="userSpaceOnUse">
				<stop  offset="0" style="stop-color:#FF6D08"/>
				<stop  offset="1" style="stop-color:#FFD208"/>
			</radialGradient>
			<rect x="101.1" y="50.8" class="st1" width="42.8" height="10.2"/>
			<radialGradient id="SVGID_2_" cx="45.8129" cy="108.4335" r="217.9954" gradientUnits="userSpaceOnUse">
				<stop  offset="0" style="stop-color:#FF6D08"/>
				<stop  offset="1" style="stop-color:#FFD208"/>
			</radialGradient>
			<rect x="101.1" y="66.9" class="st2" width="10.6" height="10.2"/>
			<radialGradient id="SVGID_3_" cx="45.8129" cy="108.4335" r="217.9954" gradientUnits="userSpaceOnUse">
				<stop  offset="0" style="stop-color:#FF6D08"/>
				<stop  offset="1" style="stop-color:#FFD208"/>
			</radialGradient>
			<rect x="101.1" y="83.1" class="st3" width="10.6" height="10.2"/>
			<radialGradient id="SVGID_4_" cx="45.8129" cy="108.4335" r="217.9954" gradientUnits="userSpaceOnUse">
				<stop  offset="0" style="stop-color:#FF6D08"/>
				<stop  offset="1" style="stop-color:#FFD208"/>
			</radialGradient>
			<rect x="101.1" y="99.3" class="st4" width="10.6" height="10.2"/>
			<radialGradient id="SVGID_5_" cx="45.8129" cy="108.4335" r="217.9954" gradientUnits="userSpaceOnUse">
				<stop  offset="0" style="stop-color:#FF6D08"/>
				<stop  offset="1" style="stop-color:#FFD208"/>
			</radialGradient>
			<rect x="117.2" y="66.9" class="st5" width="10.6" height="10.2"/>
			<radialGradient id="SVGID_6_" cx="45.8129" cy="108.4335" r="217.9954" gradientUnits="userSpaceOnUse">
				<stop  offset="0" style="stop-color:#FF6D08"/>
				<stop  offset="1" style="stop-color:#FFD208"/>
			</radialGradient>
			<rect x="117.2" y="83.1" class="st6" width="10.6" height="10.2"/>
			<radialGradient id="SVGID_7_" cx="45.8129" cy="108.4335" r="217.9954" gradientUnits="userSpaceOnUse">
				<stop  offset="0" style="stop-color:#FF6D08"/>
				<stop  offset="1" style="stop-color:#FFD208"/>
			</radialGradient>
			<rect x="117.2" y="99.3" class="st7" width="10.6" height="10.2"/>
			<radialGradient id="SVGID_8_" cx="45.8129" cy="108.4335" r="217.9954" gradientUnits="userSpaceOnUse">
				<stop  offset="0" style="stop-color:#FF6D08"/>
				<stop  offset="1" style="stop-color:#FFD208"/>
			</radialGradient>
			<rect x="133.3" y="66.9" class="st8" width="10.6" height="10.2"/>
			<radialGradient id="SVGID_9_" cx="45.8129" cy="108.4335" r="217.9954" gradientUnits="userSpaceOnUse">
				<stop  offset="0" style="stop-color:#FF6D08"/>
				<stop  offset="1" style="stop-color:#FFD208"/>
			</radialGradient>
			<polygon class="st9" points="143.7,82.9 143.7,93.5 133.5,93.5 133.5,82.9 			"/>
			<radialGradient id="SVGID_10_" cx="45.8129" cy="108.4335" r="217.9954" gradientUnits="userSpaceOnUse">
				<stop  offset="0" style="stop-color:#FF6D08"/>
				<stop  offset="1" style="stop-color:#FFD208"/>
			</radialGradient>
			<rect x="133.3" y="99.3" class="st10" width="10.6" height="10.2"/>
		</g>
		<radialGradient id="SVGID_11_" cx="45.8129" cy="108.4335" r="217.9954" gradientUnits="userSpaceOnUse">
			<stop  offset="0" style="stop-color:#FF6D08"/>
			<stop  offset="1" style="stop-color:#FFD208"/>
		</radialGradient>
		<path class="st11" d="M173.1,18l-13.7,17.4c-10-8.3-22.9-13.2-36.9-13.2C100.9,22.1,82,34,72.1,51.5l-6.8-1
			c10.7-20.7,32.3-34.9,57.3-34.9c10.5,0,20.4,2.5,29.1,7l9.8-12.5C149.9,3.7,136.6,0,122.5,0c-39.3,0-72,28.3-78.8,65.6l15.5,2.2
			l0,0l6.4,0.9c-0.7,3.7-1.1,7.5-1.1,11.3c0,32,26,58,58,58c0.4,0,0.9,0,1.3,0l2.6,6.4c-1.3,0.1-2.6,0.1-3.8,0.1
			c-35.1,0-63.6-28-64.5-62.8l-15.7-2.3c0,0.2,0,0.4,0,0.6c0,44.3,35.9,80.1,80.1,80.1c9.7,0,19-1.7,27.6-4.9l-5.8-14.5l0,0l-2.4-6
			c22.5-8,38.6-29.4,38.6-54.7c0-11.4-3.3-22-9-31l4.2-5.4c7.1,10.4,11.3,22.9,11.3,36.4c0,23-12,43.1-30.1,54.6l5.9,14.7
			c23.8-13.9,39.8-39.7,39.8-69.3C202.6,55.1,191.1,32.7,173.1,18z M122.5,123.9c-24.2,0-43.8-19.6-43.8-43.8s19.6-43.8,43.8-43.8
			s43.8,19.6,43.8,43.8S146.7,123.9,122.5,123.9z"/>
	</g>
	<g>
		<path class="st12" d="M33.3,196.9h4.3c-1,1.7-2,3.1-2.9,4.1c-1.3,1.4-2.7,2.6-4.4,3.6c-1.6,1-3.4,1.7-5.1,2.2
			c-1.8,0.5-3.6,0.7-5.3,0.7c-3.4,0-6.7-0.9-9.8-2.6c-3.2-1.7-5.6-4.2-7.4-7.3S0,191.3,0,187.8c0-3.5,0.9-6.8,2.6-9.9
			s4.2-5.5,7.3-7.3c3.1-1.7,6.4-2.6,9.9-2.6c3.7,0,7.2,0.9,10.5,2.8c3.2,1.9,5.6,4.4,7.1,7.6h-4.3c-1.1-1.4-2-2.6-3-3.4
			c-1.3-1.1-2.7-2-4.4-2.6c-1.7-0.7-3.5-1-5.6-1c-2.9,0-5.7,0.7-8.2,2.2c-2.5,1.5-4.5,3.5-6,6.1c-1.4,2.6-2.2,5.3-2.2,8
			c0,2.3,0.5,4.4,1.4,6.4c0.9,2,2.1,3.6,3.5,5c1.4,1.4,2.9,2.4,4.5,3.2c2.2,1.1,4.5,1.6,6.8,1.6c1.9,0,3.7-0.3,5.4-1
			c1.7-0.7,3.3-1.6,4.7-2.8C31.1,199.5,32.2,198.4,33.3,196.9z"/>
		<path class="st12" d="M38.2,193c0-2.1,0.4-4.1,1.2-5.9c0.8-1.8,1.8-3.4,3.1-4.6c1.3-1.3,2.7-2.3,4.2-3c2-1,4.1-1.5,6.3-1.5
			c2.5,0,4.9,0.7,7.3,2c2.3,1.3,4.2,3.2,5.5,5.5c1.3,2.4,2,4.8,2,7.3c0,2.5-0.7,4.9-2,7.3c-1.3,2.4-3.1,4.2-5.5,5.5
			c-2.3,1.3-4.8,2-7.3,2c-1.8,0-3.6-0.3-5.2-1c-1.7-0.6-3.1-1.5-4.4-2.7c-1.3-1.1-2.3-2.3-3-3.5c-0.7-1.2-1.2-2.4-1.6-3.7
			C38.4,195.5,38.2,194.3,38.2,193z M41.8,192.9c0,2,0.5,3.8,1.4,5.6c1,1.8,2.4,3.2,4.2,4.2c1.8,1,3.7,1.6,5.6,1.6
			c1.9,0,3.7-0.5,5.5-1.5c1.8-1,3.1-2.4,4.1-4.2c1-1.8,1.5-3.8,1.5-5.9c0-2.2-0.5-4.1-1.5-5.9c-1-1.8-2.4-3.1-4.2-4.1
			c-1.8-1-3.6-1.5-5.4-1.5c-1.8,0-3.6,0.5-5.5,1.6c-1.8,1-3.2,2.5-4.2,4.3C42.3,188.9,41.8,190.8,41.8,192.9z"/>
		<path class="st12" d="M70.6,206.9v-28.2h3.6v3.6h0.1c2-2.9,5-4.3,9-4.3c1.9,0,3.6,0.3,5.2,1c1.5,0.7,2.9,1.7,4,3
			c0.8,0.9,1.4,1.9,1.9,3.3c0.7,1.9,1.1,4,1.1,6.2v15.5h-3.6v-15.5c0-2.3-0.4-4.2-1.2-5.7c-0.8-1.6-1.9-2.7-3.4-3.4
			c-1.4-0.7-2.9-1.1-4.3-1.1c-1.5,0-3,0.4-4.4,1.2c-1.5,0.8-2.5,1.9-3.3,3.4c-0.7,1.5-1.1,3.4-1.1,5.6v15.5H70.6z"/>
		<path class="st12" d="M102.8,206.9v-25h-5.9v-3.3h5.9v-10h3.6v10h6.8v3.3h-6.8v25H102.8z"/>
		<path class="st12" d="M140.8,178.7v28.2h-3.6v-5H137c-0.8,1.1-1.5,1.9-2.1,2.5c-1.1,0.9-2.4,1.7-3.9,2.3c-1.5,0.6-3.3,0.9-5.2,0.9
			c-2.9,0-5.5-0.7-7.8-2c-2.3-1.3-4-3.1-5.3-5.5c-1.2-2.4-1.9-4.8-1.9-7.4c0-2.6,0.7-5.1,2-7.4c1.3-2.3,3.1-4.2,5.5-5.5
			c2.4-1.3,4.9-2,7.6-2c1.8,0,3.4,0.3,4.9,0.8c1.5,0.5,2.8,1.3,3.9,2.3c0.8,0.6,1.5,1.5,2.2,2.6h0.1v-4.9H140.8z M114.5,192.9
			c0,2,0.5,3.9,1.4,5.7c1,1.8,2.3,3.2,4.1,4.2c1.8,1,3.7,1.5,5.8,1.5c2.1,0,4-0.5,5.8-1.5c1.8-1,3.2-2.4,4.2-4.2
			c1-1.8,1.5-3.7,1.5-5.8c0-2.1-0.5-4-1.5-5.9c-1-1.8-2.4-3.3-4.2-4.3c-1.8-1-3.7-1.5-5.7-1.5c-1.1,0-2.1,0.1-3.1,0.4
			c-1,0.3-1.9,0.7-2.9,1.2c-0.9,0.5-1.8,1.2-2.6,2.2c-0.8,0.9-1.5,2.1-2.1,3.5C114.7,189.8,114.5,191.3,114.5,192.9z"/>
		<linearGradient id="SVGID_12_" gradientUnits="userSpaceOnUse" x1="164.7795" y1="232.1001" x2="164.7795" y2="138.28">
			<stop  offset="0" style="stop-color:#FF6D08"/>
			<stop  offset="1" style="stop-color:#FFD208"/>
		</linearGradient>
		<path class="st13" d="M152.9,206.9l-11.1-38.2h7.2l6.6,26.7h0.1l6.6-26.7h5.2l6.4,26.7h0.1l6.7-26.7h7.2l-11.1,38.2h-5.6
			l-6.2-25.2h-0.1l-6.3,25.2H152.9z"/>
		<linearGradient id="SVGID_13_" gradientUnits="userSpaceOnUse" x1="198.4218" y1="232.1001" x2="198.4218" y2="138.28">
			<stop  offset="0" style="stop-color:#FF6D08"/>
			<stop  offset="1" style="stop-color:#FFD208"/>
		</linearGradient>
		<path class="st14" d="M212.9,195.7h-22.2c0.7,1.9,1.7,3.4,3.1,4.4c1.4,1,3,1.5,5,1.5c1.5,0,2.8-0.3,3.8-0.9c1-0.6,1.9-1.5,2.6-2.7
			h7.2c-0.5,1.3-1,2.4-1.6,3.3c-0.9,1.3-2,2.5-3.2,3.5c-1.3,1-2.6,1.8-4.1,2.4c-1.5,0.5-3.2,0.8-5.2,0.8c-4.8,0-8.6-1.8-11.5-5.3
			c-2.3-2.8-3.4-6.1-3.4-10c0-2.8,0.7-5.4,2-7.9c1.3-2.4,3.2-4.3,5.5-5.6c2.4-1.3,4.9-2,7.7-2c2.7,0,5.2,0.6,7.5,1.9
			c2.3,1.3,4,3.1,5.3,5.4c1.3,2.3,1.9,4.8,1.9,7.4C213.4,193.1,213.2,194.4,212.9,195.7z M206.3,190.1c-0.4-2.2-1.3-3.8-2.7-5
			c-1.4-1.2-3.1-1.7-5.1-1.7c-1.5,0-2.8,0.3-4,1c-1.1,0.7-2.1,1.6-2.8,2.8c-0.5,0.8-0.9,1.8-1.2,3H206.3z"/>
		<linearGradient id="SVGID_14_" gradientUnits="userSpaceOnUse" x1="229.8817" y1="232.1001" x2="229.8817" y2="138.28">
			<stop  offset="0" style="stop-color:#FF6D08"/>
			<stop  offset="1" style="stop-color:#FFD208"/>
		</linearGradient>
		<path class="st15" d="M214.8,206.9v-38.2h6.9v12.2c2.5-2.4,5.5-3.6,9-3.6c2.5,0,4.9,0.7,7.1,2c2.2,1.3,4,3.2,5.3,5.6
			c1.3,2.4,1.9,5,1.9,7.6c0,2.5-0.6,5-1.8,7.6c-1.2,2.5-2.9,4.5-5.1,5.9c-2.2,1.4-4.7,2-7.5,2c-2.1,0-3.8-0.3-5.3-1
			c-1.5-0.7-2.9-1.8-4.2-3.3v3.5H214.8z M221.2,192.2c0,2.9,0.9,5.2,2.6,6.9c1.7,1.6,3.8,2.5,6,2.5c2.3,0,4.3-0.8,5.9-2.5
			c1.6-1.7,2.4-3.8,2.4-6.5c0-2.6-0.8-4.8-2.4-6.5c-1.6-1.7-3.6-2.5-6-2.5c-1.5,0-3,0.4-4.3,1.2c-1.3,0.8-2.4,1.9-3.1,3.2
			C221.6,189.4,221.2,190.8,221.2,192.2z"/>
	</g>
</g>
</svg>
