<?xml version="1.0" encoding="iso-8859-1"?>
<!-- Generator: Adobe Illustrator 19.0.0, SVG Export Plug-In . SVG Version: 6.00 Build 0)  -->
<svg version="1.1" id="Capa_1" xmlns="http://www.w3.org/2000/svg" xmlns:xlink="http://www.w3.org/1999/xlink" x="0px" y="0px"
	 viewBox="0 0 512.001 512.001" style="enable-background:new 0 0 512.001 512.001;" xml:space="preserve">
<g>
	<g>
		<path d="M435.902,0H76.099C34.769,0,0.141,33.629,0.141,74.959s34.628,74.959,75.958,74.959h14.992V89.951H76.099
			c-8.286,0-14.992-6.705-14.992-14.992s6.705-14.992,14.992-14.992c120.106,0,239.957,0,359.802,0
			c8.286,0,14.992,6.705,14.992,14.992s-6.705,14.992-14.992,14.992H420.91v59.967h14.992c41.33,0,75.958-33.629,75.958-74.959
			S477.231,0,435.902,0z"/>
	</g>
</g>
<g>
	<g>
		<path d="M390.926,89.951H121.074v412.984c7.919,7.919,16.55,13.434,25.591,4.393l19.384-19.384l19.384,19.384
			c5.856,5.856,15.344,5.856,21.199,0l19.384-19.384l19.384,19.384c5.856,5.856,15.344,5.856,21.199,0l19.384-19.384l19.384,19.384
			c5.856,5.856,15.344,5.856,21.199,0l19.384-19.384l19.384,19.384c2.928,2.928,6.764,4.393,10.599,4.393
			c7.112,0,10.089-3.882,14.992-8.784V89.951H390.926z M211.42,387.078c-0.13,0.048-0.266,0.026-0.396,0.071v17.629
			c0,8.286-6.705,14.992-14.992,14.992s-14.992-6.705-14.992-14.992v-17.731c-9.874-3.336-19.334-9.667-27.422-19.308
			c-5.329-6.339-4.51-15.797,1.845-21.111c6.34-5.314,15.841-4.495,21.111,1.845c7.921,9.429,16.939,13.221,24.582,10.438
			c5.9-2.152,9.868-7.818,9.868-14.098c0-8.271-6.72-14.992-14.992-14.992c-24.8,0-44.975-20.175-44.975-44.975
			c0-17.866,10.19-35.011,29.984-42.058v-17.91c0-8.286,6.705-14.992,14.992-14.992s14.992,6.705,14.992,14.992v17.949
			c7.767,2.619,15.34,6.784,22.092,13.323c5.944,5.754,6.091,15.241,0.322,21.199c-5.754,5.944-15.256,6.076-21.199,0.322
			c-7.291-7.057-15.344-9.531-22.034-6.646c-5.563,2.357-9.165,7.774-9.165,13.82c0,8.271,6.72,14.992,14.992,14.992
			c24.8,0,44.975,20.175,44.975,44.975C241.009,363.653,229.12,380.636,211.42,387.078z M345.951,389.786h-59.967
			c-8.286,0-14.992-6.705-14.992-14.992s6.705-14.992,14.992-14.992h59.967c8.286,0,14.992,6.705,14.992,14.992
			S354.238,389.786,345.951,389.786z M345.951,329.819h-59.967c-8.286,0-14.992-6.705-14.992-14.992s6.705-14.992,14.992-14.992
			h59.967c8.286,0,14.992,6.705,14.992,14.992S354.238,329.819,345.951,329.819z M345.951,269.852h-59.967
			c-8.286,0-14.992-6.705-14.992-14.992s6.705-14.992,14.992-14.992h59.967c8.286,0,14.992,6.705,14.992,14.992
			C360.943,263.147,354.238,269.852,345.951,269.852z M345.951,179.901H166.05c-8.286,0-14.992-6.705-14.992-14.992
			s6.705-14.992,14.992-14.992h179.901c8.286,0,14.992,6.705,14.992,14.992S354.238,179.901,345.951,179.901z"/>
	</g>
</g>
<g>
</g>
<g>
</g>
<g>
</g>
<g>
</g>
<g>
</g>
<g>
</g>
<g>
</g>
<g>
</g>
<g>
</g>
<g>
</g>
<g>
</g>
<g>
</g>
<g>
</g>
<g>
</g>
<g>
</g>
</svg>
