<?xml version="1.0" encoding="iso-8859-1"?>
<!-- Generator: Adobe Illustrator 19.0.0, SVG Export Plug-In . SVG Version: 6.00 Build 0)  -->
<svg version="1.1" id="Capa_1" xmlns="http://www.w3.org/2000/svg" xmlns:xlink="http://www.w3.org/1999/xlink" x="0px" y="0px"
	 viewBox="0 0 512 512" style="enable-background:new 0 0 512 512;" xml:space="preserve">
<path style="fill:#E1EFFB;" d="M66.532,32.968v446.064c0,14.02,11.366,25.386,25.386,25.386h328.164
	c14.02,0,25.386-11.366,25.386-25.386V138.647L314.403,7.582H91.918C77.898,7.582,66.532,18.948,66.532,32.968z"/>
<path style="fill:#CCDFED;" d="M344.62,37.799v108.187c0,8.789,7.125,15.913,15.913,15.913h37.421v317.133
	c0,14.02-11.366,25.386-25.386,25.386h47.514c14.02,0,25.386-11.366,25.386-25.386V161.899v-23.252L344.62,37.799z"/>
<path style="fill:#FF4C4C;" d="M314.403,7.582l131.065,131.065H330.316c-8.789,0-15.913-7.125-15.913-15.913V7.582z"/>
<path style="fill:#F96B6B;" d="M329.399,40.242l81.528,81.528h-71.629c-5.467,0-9.899-4.432-9.899-9.899L329.399,40.242
	L329.399,40.242z"/>
<path d="M109.077,449.933c0,4.187,3.394,7.582,7.582,7.582h278.682c4.188,0,7.582-3.395,7.582-7.582s-3.394-7.582-7.582-7.582
	H116.659C112.471,442.351,109.077,445.745,109.077,449.933z"/>
<path d="M277.23,186.461h118.111c4.188,0,7.582-3.395,7.582-7.582s-3.394-7.582-7.582-7.582H277.23
	c-4.188,0-7.582,3.395-7.582,7.582C269.648,183.067,273.042,186.461,277.23,186.461z"/>
<path d="M277.23,279.845h118.111c4.188,0,7.582-3.395,7.582-7.582s-3.394-7.582-7.582-7.582H277.23
	c-4.188,0-7.582,3.395-7.582,7.582S273.042,279.845,277.23,279.845z"/>
<path d="M277.23,373.229h118.111c4.188,0,7.582-3.395,7.582-7.582s-3.394-7.582-7.582-7.582H277.23
	c-4.188,0-7.582,3.395-7.582,7.582S273.042,373.229,277.23,373.229z"/>
<path d="M453.037,138.391c-0.003-0.085-0.007-0.169-0.013-0.254c-0.022-0.325-0.057-0.647-0.12-0.964c0-0.002,0-0.004-0.001-0.006
	c-0.064-0.322-0.156-0.636-0.261-0.946c-0.026-0.077-0.054-0.153-0.082-0.23c-0.111-0.296-0.234-0.587-0.382-0.868
	c-0.006-0.012-0.011-0.024-0.017-0.036c-0.155-0.292-0.335-0.569-0.528-0.839c-0.047-0.065-0.094-0.13-0.143-0.194
	c-0.204-0.268-0.42-0.528-0.661-0.769L319.764,2.221c-0.24-0.24-0.498-0.455-0.765-0.658c-0.067-0.051-0.134-0.101-0.203-0.15
	c-0.268-0.191-0.542-0.369-0.831-0.523c-0.019-0.01-0.039-0.017-0.058-0.027c-0.272-0.142-0.555-0.263-0.842-0.371
	c-0.081-0.031-0.163-0.06-0.245-0.088c-0.305-0.103-0.614-0.193-0.93-0.256c-0.016-0.003-0.032-0.004-0.048-0.007
	c-0.302-0.058-0.609-0.093-0.919-0.114c-0.092-0.006-0.185-0.011-0.277-0.014C314.565,0.009,314.485,0,314.403,0H91.918
	C73.739,0,58.95,14.789,58.95,32.968v342.765c0,4.187,3.394,7.582,7.582,7.582c4.188,0,7.582-3.395,7.582-7.582V32.968
	c0-9.817,7.987-17.804,17.804-17.804H306.82v107.57c0,12.956,10.54,23.496,23.496,23.496h107.57v41.807
	c0,4.187,3.394,7.582,7.582,7.582s7.582-3.395,7.582-7.582v-49.39C453.05,138.561,453.04,138.477,453.037,138.391z M330.316,131.066
	c-4.594,0-8.331-3.738-8.331-8.332V25.887l105.178,105.179H330.316z"/>
<path d="M445.468,228.093c-4.188,0-7.582,3.395-7.582,7.582v243.357c0,9.817-7.987,17.804-17.804,17.804H91.918
	c-9.817,0-17.804-7.987-17.804-17.804v-54.647c0-4.187-3.394-7.582-7.582-7.582s-7.582,3.395-7.582,7.582v54.647
	C58.95,497.211,73.739,512,91.918,512h328.163c18.179,0,32.968-14.789,32.968-32.968V235.675
	C453.05,231.487,449.656,228.093,445.468,228.093z"/>
<path style="fill:#F4D451;" d="M242.53,319.865c0-42.36-28.825-56.804-56.03-66.98v-65.521
	c20.765,2.075,28.786,11.644,36.207,11.644c9.592,0,14.068-12.149,14.068-18.224c0-15.155-28.719-21.932-50.275-22.938v-5.498
	c0-5.838-4.733-10.571-10.571-10.571c-0.188,0-0.371,0.018-0.556,0.028c-0.208-0.013-0.416-0.028-0.625-0.028
	c-5.436,0-9.273,3.517-9.273,7.354v1.724c-0.069,0.489-0.118,0.985-0.118,1.493v6.068c-30.335,3.227-60.63,19.222-60.63,59.456
	c0,40.87,31.886,52.404,60.63,62.625v75.166c-32.513-2.603-41.14-24.927-51.678-24.927c-7.994,0-14.708,10.551-14.708,18.225
	c0,15.65,26.804,37.044,66.385,37.724v6.697c0,0.508,0.048,1.004,0.118,1.493v1.724c0,3.837,3.837,7.354,9.273,7.354
	c0.208,0,0.417-0.015,0.625-0.028c0.185,0.01,0.369,0.028,0.556,0.028c5.838,0,10.571-4.733,10.571-10.571v-7.99
	C219.85,379.999,242.53,358.363,242.53,319.865z M136.7,214.675c0-15.988,11.828-23.99,28.657-26.57v57.125
	C149.362,239.051,136.7,232.162,136.7,214.675z M186.5,354.11v-64.694c13.697,6.545,24.057,15.606,24.057,33.966
	C210.557,340.125,201.378,350.116,186.5,354.11z"/>
<path d="M175.929,411.453c-0.191,0-0.382-0.006-0.57-0.015c-0.21,0.01-0.41,0.015-0.61,0.015c-9.405,0-16.772-6.524-16.772-14.854
	v-1.249c-0.061-0.531-0.098-1.037-0.112-1.527c-16.63-1.344-32.235-6.237-44.559-14.054c-13.671-8.672-21.832-20.19-21.832-30.809
	c0-11.652,9.905-25.725,22.207-25.725c6.702,0,11.821,4.354,17.241,8.965c6.383,5.43,14.073,11.971,26.937,14.797v-61.215
	c-28.221-10.173-60.63-24.154-60.63-67.91c0-20.843,7.284-37.456,21.65-49.377c10.048-8.339,23.427-14.027,38.987-16.625
	c0.015-0.479,0.051-0.973,0.11-1.491v-1.249c0-8.329,7.367-14.854,16.772-14.854c0.205,0,0.41,0.006,0.614,0.016
	c0.197-0.01,0.381-0.016,0.566-0.016c9.465,0,17.254,7.314,18.011,16.587c10.498,1.02,20.576,3.174,28.422,6.125
	c18.112,6.813,21.914,16.7,21.914,23.794c0,10.514-7.681,25.724-21.568,25.724c-4.744,0-8.922-2.09-13.344-4.302
	c-4.052-2.027-8.822-4.414-15.363-5.994v51.515c12.729,5.008,25.557,11.234,35.91,21.168c13.539,12.992,20.12,29.664,20.12,50.971
	c0,37.772-20.32,63.598-56.03,71.71v1.807C194,403.347,185.894,411.453,175.929,411.453z M172.976,396.029
	c0.281,0.183,0.857,0.424,1.772,0.424l0.087-0.009c0.29-0.019,0.643-0.024,0.935-0.009l0.257,0.016
	c1.648-0.052,2.974-1.409,2.974-3.069v-7.99c0-3.68,2.67-6.816,6.303-7.404c32.067-5.186,49.728-25.828,49.728-58.124
	c0-37.667-25.272-50.273-51.158-59.956c-2.93-1.096-4.872-3.896-4.872-7.024v-65.521c0-2.119,0.896-4.139,2.468-5.561
	c1.57-1.422,3.671-2.113,5.778-1.902c13.82,1.381,22.495,5.721,28.828,8.89c2.67,1.336,5.431,2.717,6.633,2.717
	c3.729,0,6.568-7.147,6.568-10.724c0-7.156-20.151-14.374-43.125-15.446c-4.002-0.187-7.15-3.485-7.15-7.492v-5.498
	c0-1.661-1.324-3.018-2.973-3.07l-0.258,0.017c-0.289,0.015-0.58,0.014-0.869-0.004l-0.24-0.015
	c-0.848,0.001-1.407,0.242-1.685,0.425v1.154c0,0.352-0.024,0.704-0.074,1.052c-0.04,0.28-0.044,0.402-0.044,0.441v6.068
	c0,3.835-2.894,7.052-6.707,7.458c-20.139,2.142-53.923,11.746-53.923,51.998c0,16.064,5.315,27.806,16.727,36.954
	c10.688,8.567,25.685,13.9,38.916,18.604c2.99,1.063,4.987,3.893,4.987,7.066v75.166c0,2.093-0.875,4.091-2.413,5.511
	c-1.537,1.419-3.599,2.131-5.686,1.965c-22.759-1.822-35.274-12.468-43.557-19.513c-2.511-2.136-6.306-5.363-7.522-5.39
	c-2.674,0-7.207,6.096-7.207,10.725c0,10.298,22.405,29.596,59.014,30.225c4.092,0.07,7.371,3.407,7.371,7.499v6.698
	c0,0.04,0.004,0.161,0.044,0.441c0.05,0.349,0.074,0.7,0.074,1.052v1.155H172.976z M186.5,361.61c-1.633,0-3.24-0.533-4.564-1.549
	c-1.851-1.419-2.936-3.619-2.936-5.951v-64.694c0-2.575,1.321-4.971,3.5-6.344c2.181-1.374,4.911-1.532,7.233-0.423
	c25.388,12.13,28.324,29.056,28.324,40.732c0,19.36-10.517,32.846-29.613,37.972C187.804,361.526,187.15,361.61,186.5,361.61z
	 M194,302.794v39.911c6.079-4.189,9.058-10.58,9.058-19.323C203.058,314.526,200.388,308.144,194,302.794z M165.356,252.729
	c-0.911,0-1.827-0.166-2.701-0.504c-16.187-6.251-33.455-14.825-33.455-37.551c0-10.687,4.55-29.312,35.021-33.984
	c2.166-0.331,4.361,0.298,6.021,1.723c1.66,1.425,2.615,3.503,2.615,5.691v57.125c0,2.473-1.219,4.787-3.259,6.186
	C168.333,252.283,166.851,252.729,165.356,252.729z M157.857,197.581c-13.658,4.745-13.657,13.788-13.657,17.094
	c0,9.265,4.438,14.444,13.657,19.136V197.581z"/>
<g>
</g>
<g>
</g>
<g>
</g>
<g>
</g>
<g>
</g>
<g>
</g>
<g>
</g>
<g>
</g>
<g>
</g>
<g>
</g>
<g>
</g>
<g>
</g>
<g>
</g>
<g>
</g>
<g>
</g>
</svg>
