<?xml version="1.0" encoding="utf-8"?>
<!-- Generator: Adobe Illustrator 21.0.0, SVG Export Plug-In . SVG Version: 6.00 Build 0)  -->
<svg version="1.1" id="Capa_1" xmlns="http://www.w3.org/2000/svg" xmlns:xlink="http://www.w3.org/1999/xlink" x="0px" y="0px"
	 viewBox="0 0 317.5 77.5" style="enable-background:new 0 0 317.5 77.5;" xml:space="preserve">
<style type="text/css">
	.st0{clip-path:url(#SVGID_2_);}
	.st1{fill:#FFFFFF;}
	.st2{clip-path:url(#SVGID_12_);}
	.st3{fill:#FBFBFB;}
	.st4{fill:#FEFEFE;}
	.st5{fill:#F8F8F8;}
	.st6{fill:#FDFDFD;}
	.st7{fill:#F7F7F7;}
	.st8{fill:#FCFCFC;}
	.st9{fill:#F3F3F3;}
	.st10{fill:#F9F9F9;}
	.st11{fill:#F6F6F6;}
	.st12{fill:#E7E7E7;}
	.st13{fill:#F1F1F1;}
	.st14{fill:#F2F2F2;}
	.st15{fill:#C1C1C1;}
	.st16{fill:#E4E4E4;}
	.st17{fill:#F0F0F0;}
	.st18{fill:#F5F5F5;}
	.st19{fill:#FAFAFA;}
	.st20{fill:#D1D1D1;}
	.st21{fill:#DEDEDE;}
	.st22{fill:#DCDCDC;}
	.st23{fill:#EAEAEA;}
	.st24{fill:#DFDFDF;}
	.st25{fill:#EEEEEE;}
	.st26{fill:#D6D6D6;}
	.st27{fill:#EDEDED;}
	.st28{fill:#ECECEC;}
	.st29{fill:#CECECE;}
	.st30{fill:#DADADA;}
	.st31{fill:#C3C3C3;}
	.st32{fill:#BABABA;}
	.st33{fill:#E0E0E0;}
	.st34{fill:#D2D2D2;}
	.st35{fill:#E3E3E3;}
	.st36{fill:#EFEFEF;}
	.st37{fill:#CFCFCF;}
	.st38{fill:#D7D7D7;}
	.st39{fill:#CDCDCD;}
	.st40{fill:#E2E2E2;}
	.st41{fill:#EBEBEB;}
	.st42{fill:#D3D3D3;}
	.st43{fill:#D8D8D8;}
	.st44{fill:#D0D0D0;}
	.st45{fill:#D9D9D9;}
	.st46{fill:#DBDBDB;}
	.st47{fill:#E1E1E1;}
	.st48{fill:#E5E5E5;}
	.st49{fill:#E9E9E9;}
	.st50{clip-path:url(#SVGID_126_);}
	.st51{fill:url(#SVGID_127_);}
	.st52{fill:url(#SVGID_128_);}
	.st53{fill:url(#SVGID_129_);}
	.st54{fill:url(#SVGID_130_);}
	.st55{fill:url(#SVGID_131_);}
	.st56{fill:url(#SVGID_132_);}
	.st57{fill:url(#SVGID_133_);}
	.st58{fill:url(#SVGID_134_);}
	.st59{fill:url(#SVGID_135_);}
	.st60{fill:url(#SVGID_136_);}
	.st61{fill:url(#SVGID_137_);}
	.st62{fill:url(#SVGID_138_);}
	.st63{fill:url(#SVGID_139_);}
	.st64{fill:url(#SVGID_140_);}
	.st65{fill:url(#SVGID_141_);}
	.st66{fill:url(#SVGID_142_);}
	.st67{fill:url(#SVGID_143_);}
	.st68{fill:url(#SVGID_144_);}
	.st69{fill:url(#SVGID_145_);}
	.st70{fill:url(#SVGID_146_);}
	.st71{fill:url(#SVGID_147_);}
	.st72{fill:url(#SVGID_148_);}
	.st73{fill:url(#SVGID_149_);}
	.st74{fill:url(#SVGID_150_);}
	.st75{fill:url(#SVGID_151_);}
	.st76{clip-path:url(#SVGID_163_);}
	.st77{fill:#87868B;}
	.st78{fill:#D68500;}
	.st79{fill:#CCB36E;}
</style>
<g>
	<path d="M158.6,62L158.6,62l7.6,0.1l-24.3-31.3l-24.4,31.3h8.3c0,0-1.7-0.8-1.2-1.4C125,60.1,141.8,39,141.8,39l5.7,7.2h-7.8
		l-3,4.3h0.1c0.4-0.3,0.7-0.3,0.7-0.3h13.2l8.4,10.5C159.2,60.7,160,61.8,158.6,62z"/>
	<path d="M225.6,62L225.6,62l6.8,0l-11-31.3l-13.6,23.3l-14.2-23.3l-11,31.3h7.4c0,0-1.3-0.9-1-2.2c0.3-1.3,5.7-17.9,5.7-17.9
		l12.8,20l12.5-20.5l6.2,18.1C226.3,59.7,226.9,61.7,225.6,62z"/>
	<g>
		<path d="M177.5,60.1c-1.4,1.3-3,1.9-4.9,1.9c-1.7,0-3.1-0.4-4-1.3c-1-0.9-1.5-1.8-1.5-2.8c0-1.7,1.4-3.1,4.1-4.2
			c-0.8-0.7-1.3-1.3-1.5-1.7c-0.3-0.5-0.4-0.9-0.4-1.3c0-0.9,0.4-1.6,1.3-2.2c0.8-0.6,1.8-0.9,3-0.9c1.1,0,2.1,0.3,2.9,0.8
			c0.8,0.6,1.2,1.3,1.2,2.1c0,1.3-1.1,2.5-3.3,3.4l3.1,3.2c0.3-0.5,0.6-1.2,0.8-1.9l2.2,0.4c-0.4,1.2-0.9,2.2-1.5,3
			c0.8,0.8,1.7,1.6,2.7,2.1l-1.4,1.4C179.3,61.6,178.4,61,177.5,60.1z M176.2,58.8l-3.9-3.9c-1.1,0.5-1.9,1-2.3,1.5
			c-0.4,0.5-0.6,0.9-0.6,1.4c0,0.6,0.3,1.2,0.9,1.8c0.6,0.6,1.4,0.9,2.3,0.9c0.6,0,1.3-0.2,1.9-0.5
			C175.2,59.7,175.7,59.3,176.2,58.8z M173.2,52.8c0.9-0.4,1.5-0.8,1.8-1.1c0.3-0.3,0.4-0.7,0.4-1.1c0-0.5-0.2-0.9-0.6-1.2
			c-0.4-0.3-0.8-0.4-1.4-0.4c-0.5,0-1,0.1-1.4,0.4c-0.4,0.3-0.6,0.7-0.6,1.1c0,0.4,0.3,0.9,0.8,1.4L173.2,52.8z"/>
	</g>
	<path class="st77" d="M136.8,71.4l2.2-5.9h0.8l2.4,5.9h-0.9l-0.7-1.8h-2.4l-0.6,1.8H136.8z M138.5,69h2l-0.6-1.6
		c-0.2-0.5-0.3-0.9-0.4-1.2c-0.1,0.4-0.2,0.7-0.3,1.1L138.5,69z"/>
	<path class="st77" d="M142.6,69.5l0.7-0.1c0,0.3,0.1,0.5,0.2,0.7c0.1,0.2,0.3,0.3,0.6,0.5c0.3,0.1,0.6,0.2,0.9,0.2
		c0.3,0,0.6,0,0.8-0.1c0.2-0.1,0.4-0.2,0.5-0.4c0.1-0.2,0.2-0.3,0.2-0.5c0-0.2-0.1-0.3-0.2-0.5c-0.1-0.1-0.3-0.3-0.5-0.3
		c-0.2-0.1-0.5-0.2-1-0.3c-0.5-0.1-0.9-0.3-1.1-0.4c-0.3-0.1-0.5-0.3-0.6-0.5c-0.1-0.2-0.2-0.5-0.2-0.7c0-0.3,0.1-0.6,0.3-0.8
		c0.2-0.3,0.4-0.5,0.7-0.6c0.3-0.1,0.7-0.2,1.1-0.2c0.4,0,0.8,0.1,1.1,0.2c0.3,0.1,0.6,0.3,0.8,0.6c0.2,0.3,0.3,0.6,0.3,0.9
		l-0.7,0.1c0-0.4-0.2-0.6-0.4-0.8c-0.2-0.2-0.6-0.3-1-0.3c-0.5,0-0.8,0.1-1,0.3c-0.2,0.2-0.3,0.4-0.3,0.6c0,0.2,0.1,0.4,0.2,0.5
		c0.1,0.1,0.5,0.3,1.2,0.4c0.6,0.1,1.1,0.3,1.3,0.4c0.3,0.2,0.6,0.4,0.8,0.6c0.2,0.2,0.2,0.5,0.2,0.8c0,0.3-0.1,0.6-0.3,0.9
		c-0.2,0.3-0.4,0.5-0.8,0.6s-0.7,0.2-1.1,0.2c-0.5,0-1-0.1-1.3-0.2c-0.4-0.2-0.6-0.4-0.8-0.7C142.7,70.3,142.6,69.9,142.6,69.5z"/>
	<path class="st77" d="M148.3,71.4v-5.9h4.2v0.7h-3.5V68h3.2v0.7h-3.2v2h3.6v0.7H148.3z"/>
	<path class="st77" d="M153.5,69.5l0.7-0.1c0,0.3,0.1,0.5,0.2,0.7c0.1,0.2,0.3,0.3,0.6,0.5c0.3,0.1,0.6,0.2,0.9,0.2
		c0.3,0,0.6,0,0.8-0.1c0.2-0.1,0.4-0.2,0.5-0.4c0.1-0.2,0.2-0.3,0.2-0.5c0-0.2-0.1-0.3-0.2-0.5c-0.1-0.1-0.3-0.3-0.5-0.3
		c-0.2-0.1-0.5-0.2-1-0.3c-0.5-0.1-0.9-0.3-1.1-0.4c-0.3-0.1-0.5-0.3-0.6-0.5c-0.1-0.2-0.2-0.5-0.2-0.7c0-0.3,0.1-0.6,0.3-0.8
		c0.2-0.3,0.4-0.5,0.7-0.6c0.3-0.1,0.7-0.2,1.1-0.2c0.4,0,0.8,0.1,1.1,0.2c0.3,0.1,0.6,0.3,0.8,0.6c0.2,0.3,0.3,0.6,0.3,0.9
		l-0.7,0.1c0-0.4-0.2-0.6-0.4-0.8c-0.2-0.2-0.6-0.3-1-0.3c-0.5,0-0.8,0.1-1,0.3c-0.2,0.2-0.3,0.4-0.3,0.6c0,0.2,0.1,0.4,0.2,0.5
		c0.1,0.1,0.5,0.3,1.2,0.4c0.6,0.1,1.1,0.3,1.3,0.4c0.3,0.2,0.6,0.4,0.8,0.6c0.2,0.2,0.2,0.5,0.2,0.8c0,0.3-0.1,0.6-0.3,0.9
		c-0.2,0.3-0.4,0.5-0.8,0.6c-0.3,0.2-0.7,0.2-1.1,0.2c-0.5,0-1-0.1-1.3-0.2c-0.4-0.2-0.6-0.4-0.8-0.7
		C153.6,70.3,153.5,69.9,153.5,69.5z"/>
	<path class="st77" d="M159,68.5c0-1,0.3-1.7,0.8-2.3c0.5-0.5,1.2-0.8,2-0.8c0.5,0,1,0.1,1.5,0.4c0.4,0.3,0.8,0.6,1,1.1
		c0.2,0.5,0.3,1,0.3,1.6c0,0.6-0.1,1.1-0.4,1.6c-0.2,0.5-0.6,0.8-1,1.1c-0.4,0.2-0.9,0.4-1.4,0.4c-0.6,0-1-0.1-1.5-0.4
		c-0.4-0.3-0.8-0.6-1-1.1C159.1,69.5,159,69.1,159,68.5z M159.8,68.6c0,0.7,0.2,1.3,0.6,1.7c0.4,0.4,0.9,0.6,1.4,0.6
		c0.6,0,1.1-0.2,1.4-0.6c0.4-0.4,0.6-1,0.6-1.7c0-0.5-0.1-0.9-0.2-1.2c-0.2-0.4-0.4-0.6-0.7-0.8c-0.3-0.2-0.7-0.3-1-0.3
		c-0.5,0-1,0.2-1.4,0.6C160,67,159.8,67.7,159.8,68.6z"/>
	<path class="st77" d="M165.6,71.4v-5.9h2.6c0.5,0,0.9,0.1,1.2,0.2c0.3,0.1,0.5,0.3,0.7,0.6c0.2,0.3,0.2,0.6,0.2,0.9
		c0,0.4-0.1,0.8-0.4,1.1c-0.3,0.3-0.7,0.5-1.2,0.5c0.2,0.1,0.4,0.2,0.5,0.3c0.2,0.2,0.4,0.5,0.6,0.8l1,1.6h-1l-0.8-1.2
		c-0.2-0.4-0.4-0.6-0.6-0.8c-0.1-0.2-0.3-0.3-0.4-0.4c-0.1-0.1-0.2-0.1-0.4-0.2c-0.1,0-0.2,0-0.4,0h-0.9v2.6H165.6z M166.4,68.1h1.7
		c0.4,0,0.6,0,0.8-0.1c0.2-0.1,0.4-0.2,0.5-0.4c0.1-0.2,0.2-0.3,0.2-0.5c0-0.3-0.1-0.5-0.3-0.7c-0.2-0.2-0.5-0.3-1-0.3h-1.9V68.1z"
		/>
	<path class="st77" d="M171.5,71.4v-5.9h4.2v0.7h-3.5V68h3.2v0.7h-3.2v2h3.6v0.7H171.5z"/>
	<path class="st77" d="M176.7,69.5l0.7-0.1c0,0.3,0.1,0.5,0.2,0.7c0.1,0.2,0.3,0.3,0.6,0.5c0.3,0.1,0.6,0.2,0.9,0.2
		c0.3,0,0.6,0,0.8-0.1c0.2-0.1,0.4-0.2,0.5-0.4c0.1-0.2,0.2-0.3,0.2-0.5c0-0.2-0.1-0.3-0.2-0.5c-0.1-0.1-0.3-0.3-0.5-0.3
		c-0.2-0.1-0.5-0.2-1-0.3c-0.5-0.1-0.9-0.3-1.1-0.4c-0.3-0.1-0.5-0.3-0.6-0.5c-0.1-0.2-0.2-0.5-0.2-0.7c0-0.3,0.1-0.6,0.3-0.8
		c0.2-0.3,0.4-0.5,0.7-0.6c0.3-0.1,0.7-0.2,1.1-0.2c0.4,0,0.8,0.1,1.1,0.2c0.3,0.1,0.6,0.3,0.8,0.6c0.2,0.3,0.3,0.6,0.3,0.9
		l-0.7,0.1c0-0.4-0.2-0.6-0.4-0.8c-0.2-0.2-0.6-0.3-1-0.3c-0.5,0-0.8,0.1-1,0.3c-0.2,0.2-0.3,0.4-0.3,0.6c0,0.2,0.1,0.4,0.2,0.5
		c0.1,0.1,0.5,0.3,1.2,0.4c0.6,0.1,1.1,0.3,1.3,0.4c0.3,0.2,0.6,0.4,0.8,0.6c0.2,0.2,0.2,0.5,0.2,0.8c0,0.3-0.1,0.6-0.3,0.9
		c-0.2,0.3-0.4,0.5-0.8,0.6c-0.3,0.2-0.7,0.2-1.1,0.2c-0.5,0-1-0.1-1.3-0.2c-0.4-0.2-0.6-0.4-0.8-0.7
		C176.8,70.3,176.7,69.9,176.7,69.5z"/>
	<path class="st77" d="M189.4,69.3l0.8,0.2c-0.2,0.6-0.5,1.1-0.9,1.5c-0.4,0.3-0.9,0.5-1.5,0.5c-0.6,0-1.1-0.1-1.5-0.4
		c-0.4-0.3-0.7-0.6-0.9-1.1c-0.2-0.5-0.3-1-0.3-1.6c0-0.6,0.1-1.1,0.3-1.6c0.2-0.5,0.6-0.8,1-1c0.4-0.2,0.9-0.4,1.4-0.4
		c0.6,0,1.1,0.1,1.5,0.4c0.4,0.3,0.7,0.7,0.8,1.3l-0.8,0.2c-0.1-0.4-0.3-0.7-0.6-0.9c-0.3-0.2-0.6-0.3-1-0.3c-0.4,0-0.8,0.1-1.1,0.3
		c-0.3,0.2-0.5,0.5-0.6,0.9c-0.1,0.4-0.2,0.7-0.2,1.1c0,0.5,0.1,0.9,0.2,1.3c0.1,0.4,0.4,0.6,0.7,0.8c0.3,0.2,0.6,0.3,1,0.3
		c0.4,0,0.8-0.1,1.1-0.4C189.1,70.2,189.3,69.8,189.4,69.3z"/>
	<path class="st77" d="M190.9,68.5c0-1,0.3-1.7,0.8-2.3c0.5-0.5,1.2-0.8,2-0.8c0.5,0,1,0.1,1.5,0.4c0.4,0.3,0.8,0.6,1,1.1
		c0.2,0.5,0.3,1,0.3,1.6c0,0.6-0.1,1.1-0.4,1.6c-0.2,0.5-0.6,0.8-1,1.1c-0.4,0.2-0.9,0.4-1.4,0.4c-0.6,0-1-0.1-1.5-0.4
		c-0.4-0.3-0.8-0.6-1-1.1C191,69.5,190.9,69.1,190.9,68.5z M191.7,68.6c0,0.7,0.2,1.3,0.6,1.7c0.4,0.4,0.9,0.6,1.4,0.6
		c0.6,0,1.1-0.2,1.4-0.6c0.4-0.4,0.6-1,0.6-1.7c0-0.5-0.1-0.9-0.2-1.2c-0.2-0.4-0.4-0.6-0.7-0.8c-0.3-0.2-0.7-0.3-1-0.3
		c-0.5,0-1,0.2-1.4,0.6C191.9,67,191.7,67.7,191.7,68.6z"/>
	<path class="st77" d="M197.5,71.4v-5.9h0.8l3.1,4.6v-4.6h0.7v5.9h-0.8l-3.1-4.6v4.6H197.5z"/>
	<path class="st77" d="M204.9,71.4v-5.2h-1.9v-0.7h4.6v0.7h-1.9v5.2H204.9z"/>
	<path class="st77" d="M207.1,71.4l2.2-5.9h0.8l2.4,5.9h-0.9l-0.7-1.8h-2.4l-0.6,1.8H207.1z M208.8,69h2l-0.6-1.6
		c-0.2-0.5-0.3-0.9-0.4-1.2c-0.1,0.4-0.2,0.7-0.3,1.1L208.8,69z"/>
	<path class="st77" d="M213.2,71.4v-5.9h2.2c0.4,0,0.8,0.1,1.1,0.2c0.3,0.1,0.5,0.3,0.6,0.5c0.2,0.2,0.2,0.5,0.2,0.8
		c0,0.3-0.1,0.5-0.2,0.7c-0.1,0.2-0.3,0.4-0.6,0.5c0.4,0.1,0.6,0.3,0.8,0.5c0.2,0.3,0.3,0.5,0.3,0.9c0,0.3-0.1,0.5-0.2,0.8
		c-0.1,0.2-0.3,0.4-0.4,0.5c-0.2,0.1-0.4,0.2-0.6,0.3c-0.3,0.1-0.6,0.1-0.9,0.1H213.2z M214,68h1.3c0.3,0,0.6,0,0.7-0.1
		c0.2-0.1,0.3-0.2,0.4-0.3c0.1-0.1,0.1-0.3,0.1-0.5c0-0.2,0-0.4-0.1-0.5c-0.1-0.1-0.2-0.2-0.4-0.3c-0.2-0.1-0.5-0.1-0.9-0.1H214V68z
		 M214,70.7h1.5c0.2,0,0.4,0,0.5,0c0.2,0,0.3-0.1,0.4-0.2s0.2-0.2,0.3-0.3c0.1-0.1,0.1-0.3,0.1-0.5c0-0.2-0.1-0.4-0.2-0.6
		c-0.1-0.2-0.3-0.3-0.5-0.3c-0.2-0.1-0.5-0.1-0.9-0.1H214V70.7z"/>
	<path class="st77" d="M218.6,71.4v-5.9h0.8v5.2h2.9v0.7H218.6z"/>
	<path class="st77" d="M223.2,71.4v-5.9h4.2v0.7H224V68h3.2v0.7H224v2h3.6v0.7H223.2z"/>
	<path class="st77" d="M228.4,69.5l0.7-0.1c0,0.3,0.1,0.5,0.2,0.7c0.1,0.2,0.3,0.3,0.6,0.5c0.3,0.1,0.6,0.2,0.9,0.2
		c0.3,0,0.6,0,0.8-0.1c0.2-0.1,0.4-0.2,0.5-0.4c0.1-0.2,0.2-0.3,0.2-0.5c0-0.2-0.1-0.3-0.2-0.5c-0.1-0.1-0.3-0.3-0.5-0.3
		c-0.2-0.1-0.5-0.2-1-0.3c-0.5-0.1-0.9-0.3-1.1-0.4c-0.3-0.1-0.5-0.3-0.6-0.5c-0.1-0.2-0.2-0.5-0.2-0.7c0-0.3,0.1-0.6,0.3-0.8
		c0.2-0.3,0.4-0.5,0.7-0.6c0.3-0.1,0.7-0.2,1.1-0.2c0.4,0,0.8,0.1,1.1,0.2c0.3,0.1,0.6,0.3,0.8,0.6c0.2,0.3,0.3,0.6,0.3,0.9
		l-0.7,0.1c0-0.4-0.2-0.6-0.4-0.8c-0.2-0.2-0.6-0.3-1-0.3c-0.5,0-0.8,0.1-1,0.3c-0.2,0.2-0.3,0.4-0.3,0.6c0,0.2,0.1,0.4,0.2,0.5
		c0.1,0.1,0.5,0.3,1.2,0.4c0.6,0.1,1.1,0.3,1.3,0.4c0.3,0.2,0.6,0.4,0.8,0.6c0.2,0.2,0.2,0.5,0.2,0.8c0,0.3-0.1,0.6-0.3,0.9
		c-0.2,0.3-0.4,0.5-0.8,0.6c-0.3,0.2-0.7,0.2-1.1,0.2c-0.5,0-1-0.1-1.3-0.2c-0.4-0.2-0.6-0.4-0.8-0.7
		C228.5,70.3,228.4,69.9,228.4,69.5z"/>
	<path class="st77" d="M110.6,6c0,0-22.8,17.4-12.6,40.5s34.4,22.4,38.7,20.6c0,0-28.6,13.8-45.7-10S93.5,9.4,110.6,6z"/>
	<path class="st78" d="M112.2,55.6c0,0-12.6-17.1,0-33.3s33.6-7.9,33.6-7.9s-12.3-12.2-29-5.9S89.6,41.8,112.2,55.6z"/>
	<path class="st79" d="M110.6,38.5c0,0,2.7-10.5,16-14.7s26.3,7.3,26.1,15.6c0,0,3.5-9.2-7.8-18.5S111.2,17,110.6,38.5z"/>
</g>
</svg>
