<?xml version="1.0" encoding="iso-8859-1"?>
<!-- Generator: Adobe Illustrator 19.0.0, SVG Export Plug-In . SVG Version: 6.00 Build 0)  -->
<svg version="1.1" id="Capa_1" xmlns="http://www.w3.org/2000/svg" xmlns:xlink="http://www.w3.org/1999/xlink" x="0px" y="0px"
	 viewBox="0 0 512 512" style="enable-background:new 0 0 512 512;" xml:space="preserve">
<g>
	<g>
		<path d="M377.565,31.565L346,0l-30,30L286,0l-30,30L226,0l-30,30L166,0l-31.565,31.565L91,0.135V512h330V0.135L377.565,31.565z
			 M151,182h150v30H151V182z M151,242h150v30H151V242z M151,302h150v30H151V302z M361,452h-30v-30h30V452z M361,392H151v-30h210V392
			z M361,332h-30v-30h30V332z M361,272h-30v-30h30V272z M361,132H151v-30h210V132z"/>
	</g>
</g>
<g>
</g>
<g>
</g>
<g>
</g>
<g>
</g>
<g>
</g>
<g>
</g>
<g>
</g>
<g>
</g>
<g>
</g>
<g>
</g>
<g>
</g>
<g>
</g>
<g>
</g>
<g>
</g>
<g>
</g>
</svg>
